<svg width="112" height="79" viewBox="0 0 112 79" fill="none" xmlns="http://www.w3.org/2000/svg">
<path d="M111.979 0H0V79H111.979V0Z" fill="#D2DD26"/>
<path d="M18.2849 58.6264C18.0941 57.9315 17.7129 56.5936 15.7206 56.5936C14.5569 56.5936 12.8013 57.4118 12.8013 60.6398C12.8013 62.6856 13.6758 64.5948 15.7206 64.5948C17.0619 64.5948 18.0022 63.7895 18.2849 62.3933H20.6979C20.2179 64.8807 18.5742 66.6147 15.668 66.6147C12.5909 66.6147 10.3883 64.5495 10.3883 60.6137C10.3883 56.613 12.7159 54.5803 15.7009 54.5803C19.1659 54.5803 20.5663 56.9443 20.6979 58.6264H18.2849Z" fill="#656867"/>
<path d="M23.6503 61.0489L26.4907 57.8342H29.2522L26.2343 61.1138L29.3246 66.316H26.6289L24.5906 62.6727L23.6503 63.6338V66.316H21.4016V57.8342H23.6503V61.0489Z" fill="#656867"/>
<path d="M37.5566 62.0624C37.5566 65.1213 35.4856 66.5372 33.1844 66.5372C30.8896 66.5372 28.7987 65.1343 28.7987 62.0754C28.7987 59.023 30.8896 57.6201 33.1844 57.6201C35.4856 57.6201 37.5566 59.0034 37.5566 62.0624ZM31.1132 62.0624C31.1132 63.1534 31.4485 64.6603 33.1844 64.6603C34.9201 64.6603 35.2423 63.1664 35.2423 62.0754C35.2423 60.9907 34.9201 59.4905 33.1844 59.4905C31.4485 59.4905 31.1132 60.9713 31.1132 62.0624Z" fill="#656867"/>
<path d="M46.0182 57.8342V66.3095H43.7696V59.6201H41.3565V62.2375C41.3565 65.4783 40.3703 66.5045 38.7857 66.5045C38.3912 66.5045 37.747 66.4394 37.4182 66.3161V64.66C37.4641 64.6924 37.7534 64.7249 38.0888 64.7249C38.7594 64.7249 39.108 64.3936 39.108 61.8089V57.8407H46.0182V57.8342Z" fill="#656867"/>
<path d="M49.4177 61.0489L52.2581 57.8342H55.0131L52.0018 61.1138L55.0986 66.316H52.4027L50.358 62.6727L49.4177 63.6338V66.316H47.1692V57.8342H49.4177V61.0489Z" fill="#656867"/>
<path d="M63.3307 62.0624C63.3307 65.1213 61.2595 66.5372 58.9583 66.5372C56.6637 66.5372 54.5728 65.1343 54.5728 62.0754C54.5728 59.023 56.6637 57.6201 58.9583 57.6201C61.253 57.6201 63.3307 59.0034 63.3307 62.0624ZM56.8872 62.0624C56.8872 63.1534 57.2224 64.6603 58.9583 64.6603C60.7007 64.6603 61.0162 63.1664 61.0162 62.0754C61.0162 60.9907 60.7007 59.4905 58.9583 59.4905C57.2224 59.4905 56.8872 60.9713 56.8872 62.0624Z" fill="#656867"/>
<path d="M64.0599 57.8342H67.9326C69.8459 57.8342 71.2529 58.607 71.2529 60.0228C71.2529 60.9971 70.5495 61.627 69.6552 61.8477C70.5297 62.0492 71.5094 62.6011 71.5094 63.991C71.5094 65.5626 70.3127 66.3095 68.3666 66.3095H64.0599V57.8342ZM66.3086 61.2698H67.7747C68.5243 61.2698 69.0502 60.971 69.0502 60.3085C69.0502 59.6136 68.544 59.3604 67.7944 59.3604H66.3086V61.2698ZM66.3086 64.7834H67.9654C68.7939 64.7834 69.3067 64.5301 69.3067 63.6922C69.3067 62.9518 68.7676 62.6077 67.9326 62.6077H66.3086V64.7834Z" fill="#656867"/>
<path d="M80.5171 62.0624C80.5171 65.1213 78.4394 66.5372 76.1448 66.5372C73.8501 66.5372 71.7527 65.1343 71.7527 62.0754C71.7527 59.023 73.8435 57.6201 76.1448 57.6201C78.4394 57.6201 80.5171 59.0034 80.5171 62.0624ZM74.0736 62.0624C74.0736 63.1534 74.409 64.6603 76.1513 64.6603C77.8871 64.6603 78.2092 63.1664 78.2092 62.0754C78.2092 60.9907 77.8871 59.4905 76.1513 59.4905C74.409 59.4905 74.0736 60.9713 74.0736 62.0624Z" fill="#656867"/>
<path d="M26.7535 52.6647C28.6669 52.6647 33.3943 52.3333 36.9185 49.7875V51.7228H44.0458V43.2344L47.0242 40.1885L53.494 51.7163H62.0349L52.2316 35.2396L61.7786 24.8549H53.0337L44.0458 35.0448V15.4767H36.9185V18.5681C34.7422 16.269 31.2245 14.522 25.7411 14.522C13.8666 14.522 11.6442 21.6595 11.6442 25.6536C11.6442 31.1481 14.6293 34.194 19.8301 35.4409L27.2072 37.2401C31.0996 38.1882 33.8808 38.8896 33.8808 41.7342C33.8808 45.527 29.8373 46.4233 26.2012 46.4233C19.5276 46.4233 18.4164 42.5786 18.4164 40.5328H11.0919C11.0919 45.0269 13.4129 52.6647 26.7535 52.6647ZM31.6059 31.0507L22.6639 28.901C21.1451 28.5502 18.7715 27.9528 18.7715 25.1082C18.7715 21.8673 22.2563 20.7632 25.1886 20.7632C31.8558 20.7632 32.4672 24.6081 32.6644 26.2512H36.9185V33.0055C35.3603 32.1158 33.5126 31.5247 31.6059 31.0507Z" fill="#656867"/>
</svg>
