<svg width="167" height="61" viewBox="0 0 167 61" fill="none" xmlns="http://www.w3.org/2000/svg">
<path d="M126.7 53.6H127.9V60.2H126.7V53.6ZM126.8 51.9C126.6 51.7 126.6 51.6 126.6 51.3C126.6 51.1 126.7 50.9 126.8 50.7C127 50.5 127.1 50.5 127.4 50.5C127.6 50.5 127.8 50.6 128 50.7C128.2 50.8 128.2 51 128.2 51.3C128.2 51.5 128.1 51.7 128 51.9C127.8 52.1 127.7 52.1 127.4 52.1C127.1 52.1 126.9 52 126.8 51.9Z" fill="#404596"/>
<path d="M150 56.1C149.8 55.1 149.2 54.5 148.2 54.5C147.2 54.5 146.5 55.2 146.3 56.1H150ZM146.2 57.1C146.2 58.2 147 59.3 148.2 59.3C149.2 59.3 149.7 58.8 150.2 58L151.3 58.6C150.7 59.7 149.5 60.4 148.3 60.4C146.3 60.4 145.1 58.9 145.1 57C145.1 55 146.2 53.5 148.3 53.5C150.4 53.5 151.4 55 151.4 57V57.2H146.2V57.1Z" fill="#404596"/>
<path d="M162.4 50.5V54.4C162.8 53.7 163.6 53.3 164.4 53.3C166.2 53.3 166.7 54.5 166.7 56.1V60H165.4V56.4C165.4 55.3 165.2 54.5 164 54.5C162.4 54.5 162.4 55.9 162.4 57.1V60.1H161.1V50.5H162.4Z" fill="#404596"/>
<path d="M141.3 60.1002H140V54.7002H139.1V53.6002H140V51.7002H141.3V53.6002H143.3V54.7002H141.3V60.1002Z" fill="#404596"/>
<path d="M118.6 50.5H117.3V60.1H118.6V50.5Z" fill="#404596"/>
<path d="M118.6 56.8999C118.6 55.5999 119.6 54.5999 120.9 54.5999C122.2 54.5999 123.2 55.5999 123.2 56.8999C123.2 58.1999 122.2 59.1999 120.9 59.1999C119.6 59.1999 118.6 58.0999 118.6 56.8999ZM118 56.8999C118 58.7999 118.9 60.3999 120.9 60.3999C122.8 60.3999 124.4 58.7999 124.4 56.8999C124.4 54.9999 122.8 53.3999 120.9 53.3999C118.9 53.3999 118 54.8999 118 56.8999Z" fill="#404596"/>
<path d="M133.8 59.1999C132.5 59.1999 131.5 58.1999 131.5 56.8999C131.5 55.5999 132.5 54.5999 133.8 54.5999C135.1 54.5999 136.1 55.5999 136.1 56.8999C136.1 58.1999 135.1 59.1999 133.8 59.1999ZM133.8 53.3999C131.9 53.3999 130.3 54.9999 130.3 56.8999C130.3 58.7999 131.9 60.3999 133.8 60.3999C135.7 60.3999 137.3 58.7999 137.3 56.8999C137.3 54.8999 135.8 53.3999 133.8 53.3999Z" fill="#404596"/>
<path d="M158.6 58.1998C158.2 58.7998 157.5 59.0998 156.8 59.0998C155.5 59.0998 154.5 58.0998 154.5 56.7998C154.5 55.4998 155.5 54.4998 156.8 54.4998C157.6 54.4998 158.2 54.8998 158.6 55.3998V53.7998C158.1 53.4998 157.4 53.2998 156.8 53.2998C154.9 53.2998 153.3 54.8998 153.3 56.7998C153.3 58.6998 154.9 60.2998 156.8 60.2998C157.5 60.2998 158.1 60.0998 158.6 59.7998V58.1998Z" fill="#404596"/>
<path d="M0 30.3998C0 24.7998 4.50001 20.2998 10.1 20.2998C15.7 20.2998 20.2 24.7998 20.2 30.3998C20.2 35.9998 15.7 40.4998 10.1 40.4998C4.60001 40.5998 0 35.9998 0 30.3998Z" fill="#404596"/>
<path d="M70.8998 0C65.2998 0 60.7998 4.50001 60.7998 10.1C60.7998 15.7 65.2998 20.2 70.8998 20.2C76.4998 20.2 80.9998 24.7 80.9998 30.3C80.9998 35.9 76.4998 40.4 70.8998 40.4C65.2998 40.4 60.7998 44.9 60.7998 50.5C60.7998 56.1 65.2998 60.6 70.8998 60.6C76.4998 60.6 80.9998 56.1 80.9998 50.5C80.9998 50.4 80.9998 50.3 80.9998 50.2C80.9998 50.3 80.9998 50.4 80.9998 50.5C80.9998 44.9 85.4998 40.4 91.0998 40.4C96.6998 40.4 101.2 35.9 101.2 30.3C101.2 24.7 96.6998 20.2 91.0998 20.2C85.4998 20.2 80.9998 15.7 80.9998 10.1C80.9998 10.2 80.9998 10.3 80.9998 10.4C80.9998 10.3 80.9998 10.2 80.9998 10.1C80.9998 4.60001 76.4998 0 70.8998 0ZM70.8998 2.29999C75.1998 2.29999 78.6998 5.80001 78.6998 10.1C78.6998 10.2 78.6998 10.2 78.6998 10.3C78.7998 17.1 84.2998 22.6 91.0998 22.6C95.3998 22.6 98.8998 26.1 98.8998 30.4C98.8998 34.7 95.3998 38.2 91.0998 38.2C84.2998 38.2 78.7998 43.7 78.6998 50.5C78.6998 50.6 78.6998 50.6 78.6998 50.7C78.6998 55 75.1998 58.5 70.8998 58.5C66.5998 58.5 63.0998 55 63.0998 50.7C63.0998 46.4 66.5998 42.9 70.8998 42.9C77.6998 42.9 83.2998 37.3 83.2998 30.5C83.2998 23.7 77.6998 18.1 70.8998 18.1C66.5998 18.1 63.0998 14.6 63.0998 10.3C63.0998 5.99999 66.4998 2.29999 70.8998 2.29999Z" fill="#404596"/>
<path d="M113.5 54.7001C113.5 58.1001 110.8 60.8001 107.4 60.8001C104 60.8001 101.3 58.1001 101.3 54.7001C101.3 51.3001 104 48.6001 107.4 48.6001C110.8 48.6001 113.5 51.4001 113.5 54.7001Z" fill="#404596"/>
<path d="M54.4002 24.5001L55.8002 25.9001C55.1002 26.5001 54.5002 27.2001 53.8002 27.7001C53.2002 28.3001 52.5002 28.9001 51.8002 29.6001C52.6002 30.7001 53.4002 31.8001 54.2002 32.9001C55.0002 34.0001 55.8002 35.1001 56.6002 36.2001H53.9002C53.3002 35.4001 52.7002 34.5001 52.0002 33.7001C51.4002 32.9001 50.8002 32.0001 50.1002 31.2001L48.5002 32.6001V36.2001H46.2002V15.1001H48.5002V29.9001C49.5002 29.0001 50.5002 28.1001 51.4002 27.2001C52.4002 26.3001 53.4002 25.4001 54.4002 24.5001Z" fill="#0C0C0C"/>
<path d="M34.2998 34.1C32.2998 34.1 30.6998 32.5 30.6998 30.5C30.6998 28.5 32.2998 26.9 34.2998 26.9C36.2998 26.9 37.8998 28.5 37.8998 30.5C37.8998 32.4 36.2998 34.1 34.2998 34.1ZM34.2998 24.5C30.9998 24.5 28.2998 27.2 28.2998 30.5C28.2998 33.8 30.9998 36.5 34.2998 36.5C37.5998 36.5 40.2998 33.8 40.2998 30.5C40.2998 27.1 37.5998 24.5 34.2998 24.5Z" fill="#0C0C0C"/>
<path d="M66.6001 34.0999C64.6001 34.0999 63.0001 32.4999 63.0001 30.4999C63.0001 28.4999 64.6001 26.8999 66.6001 26.8999C68.6001 26.8999 70.2001 28.4999 70.2001 30.4999C70.3001 32.3999 68.7001 34.0999 66.6001 34.0999ZM70.5001 24.6999L70.3001 26.0999C69.5001 24.9999 68.3001 24.3999 66.6001 24.3999C63.3001 24.3999 60.6001 27.0999 60.6001 30.3999C60.6001 33.6999 63.3001 36.3999 66.6001 36.3999C68.2001 36.3999 69.4001 35.6999 70.3001 34.6999V36.0999H72.6001V24.6999H70.5001Z" fill="#0C0C0C"/>
</svg>
